<svg width="603" height="603" viewBox="0 0 603 603" fill="none" xmlns="http://www.w3.org/2000/svg">
<rect x="0.5" y="0.5" width="602" height="602" rx="17.3482" fill="#110D23" stroke="#0C081F"/>
<path d="M233.394 343.297V320.619H210.802V342.793H233.394V343.297Z" fill="white"/>
<path d="M388.456 330.198C387.943 332.718 386.916 335.742 385.889 338.261C385.889 338.765 385.375 339.269 385.375 339.773C383.322 344.813 380.754 349.348 378.187 353.884C375.62 357.411 373.052 360.939 370.485 363.963C368.945 365.474 367.918 366.986 366.377 368.498L366.891 367.994C364.837 370.01 362.783 372.026 360.216 374.042C359.189 375.049 357.648 375.553 356.621 376.561C356.108 376.561 355.595 377.065 355.595 377.065C352.514 379.081 349.433 380.593 345.839 382.105C341.731 384.12 337.11 385.632 332.489 386.64C327.867 387.648 322.733 388.656 318.112 389.16C312.464 389.664 306.815 389.664 300.654 388.656C274.467 385.128 252.388 370.514 239.038 350.356C242.119 353.884 245.2 356.907 248.794 359.427C254.955 363.963 262.144 367.49 270.359 369.002C273.954 370.01 278.061 370.01 281.656 370.01C282.683 370.01 283.709 370.01 284.736 370.01C290.385 370.01 296.033 369.002 301.167 366.986C302.194 366.482 302.708 366.482 303.735 365.978C305.275 365.474 307.329 364.467 308.869 363.963C309.383 363.963 309.383 363.459 309.896 363.459C325.814 354.892 337.623 339.773 339.677 320.623C340.191 317.096 340.191 313.064 340.191 309.536C354.568 309.536 366.377 318.104 372.539 329.694C373.052 331.206 373.566 332.718 374.079 334.23C374.079 333.222 374.079 332.718 374.079 331.71C374.079 327.678 373.566 324.151 373.052 320.119C367.918 293.41 343.785 273.756 315.031 273.756C311.437 273.756 308.356 274.26 304.762 274.764C304.762 274.764 304.762 274.764 304.248 274.764C293.979 276.276 286.79 279.3 275.494 287.363C270.873 290.386 261.631 298.45 254.442 305.001C250.848 308.529 244.686 305.001 245.713 299.961C246.74 295.426 248.28 290.386 251.361 284.843C236.984 265.189 236.984 244.023 265.225 225.377C281.656 214.291 308.869 211.267 334.029 220.338C349.433 212.275 371.512 211.771 391.537 232.937C393.591 234.952 392.051 238.48 388.97 238.48C383.322 238.48 375.62 239.992 369.458 244.527C369.972 245.031 370.485 246.039 371.512 247.047C395.645 278.292 395.131 307.521 388.456 330.198Z" fill="white"/>
</svg>
